# xmcd
#
# Track frame offsets:
# 150
# 24782
# 47505
# 72380
# 93935
# 117722
# 141717
# 156315
# 181907
# 197150
# 211682
# 224622
#
# Disc length: 3302 seconds
#
#
# Revision: 0
# Processed by: cddbd v1.5.1PL0 Copyright (c) Steve Scherf et al.
# Submitted via: FreeRIP 2.70 
#
DISCID=b40ce40c
DTITLE=Christine Sullivan - Bloom
DYEAR=1999
DGENRE=Blues
TTITLE0=Heaven Help
TTITLE1=Cant Stand The Rain
TTITLE2=Inner City Blues
TTITLE3=Afro Blue
TTITLE4=I Think I Understand
TTITLE5=Over The River
TTITLE6=Rise As You Are
TTITLE7=Danny Boy
TTITLE8=How Do You Stop
TTITLE9=What The World Needs Now
TTITLE10=Here Comes The Sun
TTITLE11=Here And Now (Acoustic)
EXTD=
EXTT0=
EXTT1=
EXTT2=
EXTT3=
EXTT4=
EXTT5=
EXTT6=
EXTT7=
EXTT8=
EXTT9=
EXTT10=
EXTT11=
PLAYORDER=
